<svg width="25" height="37" viewBox="0 0 25 37" fill="none" xmlns="http://www.w3.org/2000/svg">
<path d="M22.7498 18.5889L12.2387 0L1.74256 18.5889C-3.13314 28.0301 4.80393 36.8899 12.2387 37C19.6884 36.8899 27.6255 28.0301 22.7498 18.5889ZM20.2032 28.239C18.6413 31.3127 15.3775 33.4662 12.2387 33.5029C9.10734 33.4662 5.84604 31.3127 4.28162 28.239C3.38195 26.4665 2.67472 23.644 4.42157 20.2372L12.2387 6.4014L20.0583 20.2316C21.8102 23.644 21.1029 26.4665 20.2032 28.239Z" fill="url(#paint0_linear_398_1155)"/>
<path d="M20.1856 19.9748L12.2386 5.92725L4.30651 19.9748C0.64036 27.0733 6.65814 33.7259 12.2386 33.7401C17.819 33.7542 23.8518 27.0733 20.1856 19.9748ZM18.3088 27.1354C17.1368 29.4357 14.5902 31.1095 12.2461 31.1151C9.90194 31.1208 7.35538 29.4357 6.18332 27.1354C5.24116 25.2782 5.27615 23.3307 6.29078 21.3409L12.2386 10.7989L18.2014 21.3409C19.216 23.3307 19.251 25.2782 18.3088 27.1354Z" fill="url(#paint1_linear_398_1155)"/>
<defs>
<linearGradient id="paint0_linear_398_1155" x1="285.752" y1="2376.9" x2="2112.59" y2="2376.9" gradientUnits="userSpaceOnUse">
<stop stop-color="#1D398D"/>
<stop offset="1" stop-color="#2E6BB4"/>
</linearGradient>
<linearGradient id="paint1_linear_398_1155" x1="685.059" y1="1812.51" x2="1115.49" y2="1812.51" gradientUnits="userSpaceOnUse">
<stop stop-color="#2E6AB3"/>
<stop offset="1" stop-color="#1D378C"/>
</linearGradient>
</defs>
</svg>
