<svg width="30" height="31" viewBox="0 0 30 31" fill="none" xmlns="http://www.w3.org/2000/svg">
<path d="M15.9375 25.8125V20.1875H19.6875L15 14.5625L10.3125 20.1875H14.0625V25.8125H9.375V25.7656C9.2175 25.775 9.0675 25.8125 8.90625 25.8125C7.04145 25.8125 5.25302 25.0717 3.93441 23.7531C2.61579 22.4345 1.875 20.6461 1.875 18.7812C1.875 15.1737 4.60313 12.2338 8.10375 11.8306C8.41067 10.2262 9.26708 8.77882 10.5257 7.7375C11.7843 6.69618 13.3665 6.12599 15 6.125C16.6338 6.12591 18.2162 6.69604 19.4751 7.73733C20.734 8.77863 21.5908 10.226 21.8981 11.8306C25.3988 12.2338 28.1231 15.1737 28.1231 18.7812C28.1231 20.6461 27.3823 22.4345 26.0637 23.7531C24.7451 25.0717 22.9567 25.8125 21.0919 25.8125C20.9344 25.8125 20.7825 25.775 20.6231 25.7656V25.8125H15.9375Z" fill="#2E6AB3"/>
</svg>
