<svg width="186" height="40" viewBox="0 0 186 40" fill="none" xmlns="http://www.w3.org/2000/svg">
<mask id="mask0_619_947" style="mask-type:luminance" maskUnits="userSpaceOnUse" x="37" y="13" width="14" height="18">
<path d="M37.1895 13.7322H50.449V30.8388H37.1895V13.7322Z" fill="white"/>
</mask>
<g mask="url(#mask0_619_947)">
<path fill-rule="evenodd" clip-rule="evenodd" d="M43.7288 24.3268C45.3453 24.3283 47.4186 22.9781 47.4207 20.4079C47.4228 18.1085 45.6489 16.4839 43.7819 16.4824C41.8921 16.4809 40.0472 17.9893 40.0448 20.4013C40.042 23.1739 42.2946 24.3256 43.7288 24.3268ZM37.2051 14.1544L39.9826 14.1571L39.9811 15.6226H40.0263C41.5303 13.7301 43.5338 13.7316 44.1261 13.7322C48.2693 13.7364 50.4521 17.2773 50.449 20.3658C50.4457 24.0625 47.6876 27.0805 44.1137 27.0772C41.9737 27.0751 41.018 26.2181 40.2219 25.4736L40.2173 30.8388L37.1893 30.8358L37.2051 14.1544Z" fill="#A6A8AB"/>
</g>
<path fill-rule="evenodd" clip-rule="evenodd" d="M50.9949 14.1665L53.7724 14.1692L53.7715 15.2737H53.8173C54.3866 14.4629 54.9564 13.7422 56.5278 13.7437H56.7777L56.7753 16.6518C54.0208 16.762 54.0187 18.9034 54.0181 19.6469L54.0114 26.6806L50.9831 26.6776L50.9949 14.1665Z" fill="#A6A8AB"/>
<path fill-rule="evenodd" clip-rule="evenodd" d="M66.2643 20.47C66.2664 18.1932 64.4919 16.5013 62.6027 16.4992C61.0314 16.498 58.8905 17.8256 58.8877 20.4406C58.8856 22.8079 60.6826 24.3427 62.5954 24.3439C64.8037 24.346 66.2628 22.4535 66.2643 20.47ZM55.86 20.4382C55.8637 16.6508 58.9854 13.7457 62.6054 13.749C66.1794 13.7526 69.2957 16.5727 69.292 20.4049C69.2884 24.5082 66.0987 27.097 62.5927 27.0943C58.8362 27.0904 55.857 24.0217 55.86 20.4382Z" fill="#A6A8AB"/>
<mask id="mask1_619_947" style="mask-type:luminance" maskUnits="userSpaceOnUse" x="69" y="10" width="14" height="18">
<path d="M69.6777 10.0227H82.9832V27.1058H69.6777V10.0227Z" fill="white"/>
</mask>
<g mask="url(#mask1_619_947)">
<path fill-rule="evenodd" clip-rule="evenodd" d="M76.4356 24.3563C78.7127 24.3584 80.1718 22.3308 80.1733 20.4368C80.1754 18.3857 78.5835 16.5137 76.4429 16.5116C74.1891 16.5095 72.7076 18.5818 72.7055 20.3401C72.7033 22.6617 74.4551 24.3542 76.4356 24.3563ZM82.9675 26.7064L80.19 26.7037L80.1915 25.1713H80.1463C79.5758 26.0722 78.2544 27.1079 76.1144 27.1058C72.9041 27.1028 69.6741 24.4848 69.6777 20.4497C69.682 16.235 73.0991 13.7581 76.1268 13.7608C77.9708 13.7629 79.0636 14.3725 79.9507 15.2975L79.9552 10.0227L82.9833 10.0251L82.9675 26.7064Z" fill="#A6A8AB"/>
</g>
<path fill-rule="evenodd" clip-rule="evenodd" d="M94.7244 14.2063L94.7125 26.7173L91.9356 26.7146L91.9366 25.4528H91.8905C91.3891 26.1284 90.5687 27.1194 88.6335 27.1173C86.3339 27.1152 85.0377 25.9867 84.4011 25.13C83.4691 23.7993 83.4712 21.7702 83.4721 20.7333L83.4782 14.196L86.5059 14.1984L86.4998 20.5786C86.4986 21.5927 86.4962 24.3651 89.1372 24.3678C91.0491 24.3699 91.6885 22.5894 91.6906 20.6059L91.697 14.2039L94.7244 14.2063Z" fill="#A6A8AB"/>
<path fill-rule="evenodd" clip-rule="evenodd" d="M108.315 22.6491C107.288 25.4434 104.941 27.1317 101.981 27.129C98.749 27.1259 95.2679 24.5533 95.2718 20.4052C95.2755 16.5734 98.4885 13.7809 101.971 13.7839C103.565 13.7854 107.025 14.5101 108.319 18.3659L104.904 18.3629C104.54 17.7317 103.835 16.5362 101.968 16.5341C100.125 16.5326 98.302 17.8833 98.2998 20.453C98.2977 22.5944 99.8211 24.3767 102.098 24.3788C103.1 24.38 104.102 23.9076 104.9 22.6461L108.315 22.6491Z" fill="#A6A8AB"/>
<path fill-rule="evenodd" clip-rule="evenodd" d="M109.594 16.8793L108.114 16.8778L108.116 14.2181L109.596 14.2196L109.6 10.0493L112.627 10.052L112.624 14.222L114.445 14.2238L114.443 16.8841L112.621 16.882L112.612 26.7331L109.584 26.7307L109.594 16.8793Z" fill="#A6A8AB"/>
<path fill-rule="evenodd" clip-rule="evenodd" d="M114.995 10.054L118.022 10.0573L118.02 12.8071L114.992 12.8041L114.995 10.054ZM114.991 14.2242L118.019 14.2272L118.007 26.7383L114.979 26.735L114.991 14.2242Z" fill="#A6A8AB"/>
<path fill-rule="evenodd" clip-rule="evenodd" d="M128.683 20.5256C128.685 18.2487 126.91 16.5568 125.021 16.5553C123.45 16.5535 121.309 17.8817 121.306 20.4968C121.304 22.8634 123.101 24.3982 125.013 24.3995C127.222 24.4016 128.681 22.5091 128.683 20.5256ZM118.278 20.4938C118.282 16.7064 121.404 13.8013 125.024 13.8052C128.598 13.8082 131.714 16.6289 131.71 20.461C131.707 24.5637 128.517 27.1532 125.011 27.1499C121.254 27.1466 118.275 24.0778 118.278 20.4938Z" fill="#A6A8AB"/>
<path fill-rule="evenodd" clip-rule="evenodd" d="M131.98 14.2394L134.78 14.2418L134.779 15.3243C135.28 14.8511 136.329 13.815 138.241 13.8171C139.333 13.818 140.995 14.2931 142.041 15.5562C143.202 16.9322 143.199 19.0288 143.199 19.9982L143.192 26.7607L140.164 26.7583L140.17 20.5814C140.171 19.5445 140.174 16.5688 137.624 16.5667C137.078 16.5664 136.098 16.8358 135.551 17.6688C135.004 18.4349 135.003 19.7421 135.002 20.8021L134.996 26.7528L131.968 26.7501L131.98 14.2394Z" fill="#A6A8AB"/>
<mask id="mask2_619_947" style="mask-type:luminance" maskUnits="userSpaceOnUse" x="143" y="13" width="14" height="19">
<path d="M143.271 13.8274H156.732V31.8615H143.271V13.8274Z" fill="white"/>
</mask>
<g mask="url(#mask2_619_947)">
<path fill-rule="evenodd" clip-rule="evenodd" d="M149.99 16.5781C148.169 16.576 146.301 18.0394 146.298 20.4067C146.296 22.9538 148.23 24.4208 150.074 24.4223C151.895 24.4241 153.695 22.8928 153.698 20.391C153.699 18.6103 152.244 16.5802 149.99 16.5781ZM156.732 14.2619L156.722 24.4739C156.716 30.4925 152.208 31.8634 149.817 31.8616C147.221 31.8589 144.559 30.5039 143.469 27.7075L146.929 27.7108C148.112 29.1096 149.569 29.1105 150.047 29.1111C151.754 29.1129 153.759 27.9427 153.921 25.2154L153.876 25.1703C153.465 25.7328 152.302 27.1745 149.73 27.1724C146.656 27.1697 143.267 24.5742 143.271 20.3811C143.275 16.4589 146.509 13.8244 149.72 13.8274C152.315 13.8301 153.406 15.2959 153.748 15.7926H153.793L153.795 14.2595L156.732 14.2619Z" fill="#1E388C"/>
</g>
<path fill-rule="evenodd" clip-rule="evenodd" d="M157.325 10.0923L160.353 10.0953L160.338 26.7766L157.309 26.7736L157.325 10.0923Z" fill="#1E388C"/>
<path fill-rule="evenodd" clip-rule="evenodd" d="M172.119 14.2764L172.107 26.7875L169.33 26.7848L169.331 25.5224H169.285C168.783 26.198 167.963 27.1893 166.028 27.1875C163.728 27.1854 162.432 26.0572 161.795 25.1998C160.863 23.8689 160.865 21.8398 160.866 20.8028L160.872 14.2656L163.9 14.2686L163.894 20.6479C163.893 21.6623 163.89 24.4353 166.531 24.4377C168.443 24.4392 169.082 22.6593 169.084 20.6755L169.091 14.2734L172.119 14.2764Z" fill="#1E388C"/>
<path fill-rule="evenodd" clip-rule="evenodd" d="M182.479 19.4702C182.139 17.4636 180.683 16.606 179.067 16.6045C177.837 16.6033 176.061 17.1423 175.489 19.4636L182.479 19.4702ZM175.579 21.8762C175.714 22.6876 176.897 24.4465 179.059 24.4486C180.402 24.4501 181.405 23.8876 181.975 22.8513L185.162 22.8543C184.431 25.1071 182.039 27.202 179.057 27.1987C175.209 27.1954 172.389 24.2176 172.392 20.5654C172.396 17.0261 175.04 13.8507 179.046 13.854C183.19 13.8579 185.577 17.2186 185.575 20.3747C185.574 20.9609 185.482 21.4789 185.391 21.8849L175.579 21.8762Z" fill="#1E388C"/>
<path d="M28.081 20.0961L14.9671 0L1.8719 20.0961C-4.21114 30.3028 5.69133 39.881 14.9671 40C24.2616 39.881 34.164 30.3028 28.081 20.0961ZM24.9039 30.5286C22.9552 33.8516 18.8832 36.1797 14.9671 36.2194C11.0604 36.1797 6.9915 33.8516 5.03969 30.5286C3.91724 28.6124 3.03488 25.5611 5.21429 21.8781L14.9671 6.92044L24.723 21.872C26.9087 25.5611 26.0263 28.6124 24.9039 30.5286Z" fill="url(#paint0_linear_619_947)"/>
<path d="M24.8821 21.5942L14.9672 6.40771L5.07094 21.5942C0.49697 29.2683 8.00489 36.4604 14.9672 36.4756C21.9295 36.4909 29.4561 29.2683 24.8821 21.5942ZM22.5406 29.3355C21.0783 31.8223 17.9011 33.6318 14.9765 33.6379C12.0519 33.644 8.87478 31.8223 7.41248 29.3355C6.23703 27.3277 6.28068 25.2223 7.54655 23.0711L14.9672 11.6743L22.4065 23.0711C23.6724 25.2223 23.716 27.3277 22.5406 29.3355Z" fill="url(#paint1_linear_619_947)"/>
<defs>
<linearGradient id="paint0_linear_619_947" x1="356.208" y1="2569.62" x2="2635.42" y2="2569.62" gradientUnits="userSpaceOnUse">
<stop stop-color="#1D398D"/>
<stop offset="1" stop-color="#2E6BB4"/>
</linearGradient>
<linearGradient id="paint1_linear_619_947" x1="854.393" y1="1959.47" x2="1391.41" y2="1959.47" gradientUnits="userSpaceOnUse">
<stop stop-color="#2E6AB3"/>
<stop offset="1" stop-color="#1D378C"/>
</linearGradient>
</defs>
</svg>
