<svg width="187" height="40" viewBox="0 0 187 40" fill="none" xmlns="http://www.w3.org/2000/svg">
<mask id="mask0_548_7483" style="mask-type:luminance" maskUnits="userSpaceOnUse" x="37" y="13" width="15" height="18">
<path d="M37.9023 13.7324H51.1619V30.839H37.9023V13.7324Z" fill="white"/>
</mask>
<g mask="url(#mask0_548_7483)">
<path fill-rule="evenodd" clip-rule="evenodd" d="M44.4418 24.327C46.0583 24.3285 48.1316 22.9784 48.1337 20.4081C48.1359 18.1087 46.3619 16.4841 44.4949 16.4826C42.6051 16.4811 40.7602 17.9895 40.7578 20.4015C40.7551 23.1742 43.0076 24.3258 44.4418 24.327ZM37.9181 14.1547L40.6956 14.1574L40.6941 15.6229H40.7393C42.2433 13.7304 44.2468 13.7319 44.8391 13.7324C48.9823 13.7367 51.1651 17.2775 51.1621 20.3661C51.1587 24.0628 48.4006 27.0808 44.8267 27.0775C42.6867 27.0754 41.731 26.2183 40.9349 25.4739L40.9304 30.839L37.9023 30.836L37.9181 14.1547Z" fill="white"/>
</g>
<path fill-rule="evenodd" clip-rule="evenodd" d="M51.7071 14.166L54.4846 14.1687L54.4837 15.2732H54.5295C55.0988 14.4624 55.6687 13.7417 57.24 13.7432H57.4899L57.4875 16.6513C54.733 16.7615 54.7309 18.9029 54.7303 19.6465L54.7236 26.6801L51.6953 26.6771L51.7071 14.166Z" fill="white"/>
<path fill-rule="evenodd" clip-rule="evenodd" d="M66.9765 20.47C66.9787 18.1932 65.2041 16.5013 63.315 16.4992C61.7436 16.498 59.6027 17.8256 59.6 20.4406C59.5979 22.8079 61.3948 24.3427 63.3077 24.3439C65.5159 24.346 66.975 22.4535 66.9765 20.47ZM56.5723 20.4382C56.5759 16.6508 59.6976 13.7457 63.3177 13.749C66.8916 13.7526 70.0079 16.5727 70.0043 20.4049C70.0006 24.5082 66.8109 27.097 63.3049 27.0943C59.5484 27.0904 56.5692 24.0217 56.5723 20.4382Z" fill="white"/>
<mask id="mask1_548_7483" style="mask-type:luminance" maskUnits="userSpaceOnUse" x="70" y="10" width="14" height="18">
<path d="M70.3906 10.0225H83.6961V27.1055H70.3906V10.0225Z" fill="white"/>
</mask>
<g mask="url(#mask1_548_7483)">
<path fill-rule="evenodd" clip-rule="evenodd" d="M77.1485 24.3561C79.4256 24.3582 80.8847 22.3305 80.8862 20.4365C80.8883 18.3855 79.2964 16.5134 77.1558 16.5113C74.902 16.5092 73.4205 18.5816 73.4183 20.3399C73.4162 22.6615 75.168 24.354 77.1485 24.3561ZM83.6804 26.7062L80.9029 26.7035L80.9044 25.1711H80.8592C80.2887 26.072 78.9673 27.1077 76.8273 27.1056C73.617 27.1026 70.387 24.4846 70.3906 20.4495C70.3949 16.2348 73.812 13.7579 76.8397 13.7606C78.6837 13.7627 79.7765 14.3723 80.6636 15.2972L80.6681 10.0225L83.6961 10.0249L83.6804 26.7062Z" fill="white"/>
</g>
<path fill-rule="evenodd" clip-rule="evenodd" d="M95.4379 14.2055L95.4261 26.7166L92.6492 26.7139L92.6501 25.452H92.604C92.1027 26.1277 91.2823 27.1187 89.347 27.1166C87.0475 27.1145 85.7512 25.986 85.1146 25.1292C84.1826 23.7986 84.1848 21.7695 84.1856 20.7325L84.1917 14.1953L87.2194 14.1977L87.2134 20.5779C87.2122 21.592 87.2097 24.3644 89.8508 24.3671C91.7627 24.3692 92.402 22.5887 92.4041 20.6052L92.4105 14.2031L95.4379 14.2055Z" fill="white"/>
<path fill-rule="evenodd" clip-rule="evenodd" d="M109.028 22.6493C108.001 25.4436 105.653 27.1319 102.694 27.1292C99.4616 27.1262 95.9804 24.5535 95.9844 20.4055C95.988 16.5737 99.201 13.7812 102.684 13.7842C104.277 13.7857 107.738 14.5103 109.032 18.3662L105.616 18.3632C105.253 17.7319 104.548 16.5364 102.681 16.5343C100.837 16.5328 99.0145 17.8836 99.0124 20.4532C99.0103 22.5947 100.534 24.377 102.81 24.3791C103.813 24.3803 104.815 23.9079 105.612 22.6463L109.028 22.6493Z" fill="white"/>
<path fill-rule="evenodd" clip-rule="evenodd" d="M110.306 16.8788L108.826 16.8773L108.829 14.2176L110.309 14.2191L110.313 10.0488L113.34 10.0515L113.336 14.2215L115.158 14.2233L115.155 16.8836L113.334 16.8815L113.325 26.7326L110.297 26.7302L110.306 16.8788Z" fill="white"/>
<path fill-rule="evenodd" clip-rule="evenodd" d="M115.707 10.0537L118.735 10.057L118.732 12.8069L115.704 12.8039L115.707 10.0537ZM115.703 14.224L118.731 14.227L118.719 26.7381L115.691 26.7347L115.703 14.224Z" fill="white"/>
<path fill-rule="evenodd" clip-rule="evenodd" d="M129.396 20.5251C129.399 18.2482 127.624 16.5563 125.735 16.5548C124.164 16.553 122.023 17.8813 122.02 20.4963C122.018 22.8629 123.815 24.3978 125.727 24.399C127.936 24.4011 129.395 22.5086 129.396 20.5251ZM118.992 20.4933C118.996 16.7059 122.118 13.8008 125.738 13.8047C129.312 13.8077 132.428 16.6284 132.424 20.4605C132.421 24.5632 129.231 27.1527 125.725 27.1494C121.968 27.1461 118.989 24.0773 118.992 20.4933Z" fill="white"/>
<path fill-rule="evenodd" clip-rule="evenodd" d="M132.693 14.2386L135.494 14.241L135.493 15.3236C135.994 14.8503 137.042 13.8143 138.955 13.8164C140.047 13.8173 141.709 14.2924 142.755 15.5554C143.915 16.9314 143.913 19.0281 143.912 19.9975L143.906 26.7599L140.877 26.7575L140.883 20.5807C140.884 19.5437 140.887 16.5681 138.337 16.566C137.791 16.5657 136.812 16.835 136.264 17.6681C135.718 18.4341 135.717 19.7413 135.716 20.8014L135.71 26.7521L132.682 26.7494L132.693 14.2386Z" fill="white"/>
<mask id="mask2_548_7483" style="mask-type:luminance" maskUnits="userSpaceOnUse" x="143" y="13" width="15" height="19">
<path d="M143.984 13.8271H157.445V31.8612H143.984V13.8271Z" fill="white"/>
</mask>
<g mask="url(#mask2_548_7483)">
<path fill-rule="evenodd" clip-rule="evenodd" d="M150.703 16.5779C148.882 16.5758 147.014 18.0392 147.011 20.4064C147.009 22.9536 148.943 24.4205 150.787 24.422C152.608 24.4238 154.408 22.8926 154.411 20.3908C154.412 18.61 152.957 16.58 150.703 16.5779ZM157.445 14.2617L157.435 24.4737C157.429 30.4923 152.921 31.8631 150.53 31.8613C147.934 31.8586 145.272 30.5037 144.182 27.7073L147.642 27.7106C148.825 29.1094 150.282 29.1103 150.76 29.1109C152.467 29.1127 154.472 27.9424 154.634 25.2151L154.589 25.1701C154.178 25.7325 153.015 27.1743 150.443 27.1722C147.37 27.1695 143.98 24.574 143.984 20.3809C143.988 16.4587 147.223 13.8242 150.433 13.8272C153.028 13.8299 154.12 15.2956 154.461 15.7923H154.506L154.508 14.2593L157.445 14.2617Z" fill="#1E388C"/>
</g>
<path fill-rule="evenodd" clip-rule="evenodd" d="M158.037 10.0918L161.065 10.0948L161.05 26.7761L158.021 26.7731L158.037 10.0918Z" fill="#1E388C"/>
<path fill-rule="evenodd" clip-rule="evenodd" d="M172.831 14.2764L172.819 26.7875L170.042 26.7848L170.043 25.5224H169.997C169.496 26.198 168.675 27.1893 166.74 27.1875C164.44 27.1854 163.144 26.0572 162.507 25.1998C161.575 23.8689 161.577 21.8398 161.578 20.8028L161.585 14.2656L164.612 14.2686L164.606 20.6479C164.605 21.6623 164.602 24.4353 167.243 24.4377C169.156 24.4392 169.795 22.6593 169.797 20.6755L169.803 14.2734L172.831 14.2764Z" fill="#1E388C"/>
<path fill-rule="evenodd" clip-rule="evenodd" d="M183.192 19.4697C182.853 17.4631 181.396 16.6055 179.78 16.604C178.55 16.6028 176.774 17.1418 176.203 19.4631L183.192 19.4697ZM176.292 21.8757C176.427 22.6871 177.61 24.446 179.773 24.4481C181.116 24.4496 182.118 23.8871 182.688 22.8508L185.876 22.8538C185.144 25.1066 182.752 27.2015 179.77 27.1982C175.922 27.1949 173.102 24.2172 173.105 20.5649C173.109 17.0256 175.753 13.8502 179.76 13.8535C183.903 13.8574 186.291 17.2181 186.288 20.3742C186.288 20.9604 186.196 21.4784 186.104 21.8844L176.292 21.8757Z" fill="#1E388C"/>
<path d="M28.7939 20.0961L15.68 0L2.58479 20.0961C-3.49825 30.3028 6.40422 39.881 15.68 40C24.9745 39.881 34.8769 30.3028 28.7939 20.0961ZM25.6168 30.5286C23.6681 33.8516 19.5961 36.1797 15.68 36.2194C11.7733 36.1797 7.70439 33.8516 5.75258 30.5286C4.63013 28.6124 3.74777 25.5611 5.92718 21.8781L15.68 6.92044L25.4359 21.872C27.6216 25.5611 26.7392 28.6124 25.6168 30.5286Z" fill="url(#paint0_linear_548_7483)"/>
<path d="M25.5943 21.5947L15.6794 6.4082L5.78318 21.5947C1.20921 29.2688 8.71713 36.4608 15.6794 36.4761C22.6417 36.4914 30.1683 29.2688 25.5943 21.5947ZM23.2528 29.336C21.7905 31.8228 18.6134 33.6322 15.6888 33.6384C12.7642 33.6445 9.58702 31.8228 8.12472 29.336C6.94927 27.3282 6.99292 25.2228 8.25879 23.0716L15.6794 11.6748L23.1187 23.0716C24.3846 25.2228 24.4283 27.3282 23.2528 29.336Z" fill="url(#paint1_linear_548_7483)"/>
<defs>
<linearGradient id="paint0_linear_548_7483" x1="356.921" y1="2569.62" x2="2636.13" y2="2569.62" gradientUnits="userSpaceOnUse">
<stop stop-color="#1D398D"/>
<stop offset="1" stop-color="#2E6BB4"/>
</linearGradient>
<linearGradient id="paint1_linear_548_7483" x1="855.106" y1="1959.47" x2="1392.12" y2="1959.47" gradientUnits="userSpaceOnUse">
<stop stop-color="#2E6AB3"/>
<stop offset="1" stop-color="#1D378C"/>
</linearGradient>
</defs>
</svg>
