<svg xmlns="http://www.w3.org/2000/svg" xml:space="preserve" viewBox="122.27 52.22 446.04 102.75">
  <path d="M141.929 95.644c4.86.006 11.09-4.093 11.097-11.897.006-6.981-5.325-11.915-10.934-11.915-5.684-.005-11.227 4.575-11.238 11.892-.005 8.422 6.764 11.915 11.075 11.92M122.321 64.76l8.348.012-.005 4.446h.134c4.524-5.744 10.543-5.74 12.324-5.74 12.456.018 19.019 10.768 19.007 20.14-.01 11.225-8.296 20.386-19.041 20.374-6.434-.005-9.306-2.61-11.702-4.865l-.012 16.286-9.102-.01zm41.452.04 8.348.006v3.354h.135c1.712-2.458 3.426-4.648 8.146-4.641h.755l-.01 8.828c-8.275.33-8.287 6.832-8.287 9.093l-.016 21.348-9.104-.005z" fill="#fff"/>
  <path d="M209.67 83.935c.005-6.915-5.33-12.05-11.006-12.055-4.72-.005-11.16 4.027-11.166 11.966-.005 7.189 5.392 11.846 11.143 11.852 6.64.006 11.024-5.74 11.03-11.763m-31.277-.096c.012-11.499 9.396-20.317 20.275-20.307 10.744.012 20.11 8.572 20.105 20.207-.012 12.457-9.603 20.313-20.14 20.306-11.292-.01-20.25-9.327-20.24-20.206m61.851 11.895c6.846.005 11.232-6.148 11.237-11.898.005-6.226-4.783-11.908-11.215-11.92-6.774-.005-11.225 6.287-11.237 11.624-.005 7.048 5.263 12.188 11.215 12.194m19.634 7.133-8.348-.006.007-4.653h-.14c-1.715 2.732-5.684 5.879-12.116 5.873-9.652-.012-19.361-7.955-19.35-20.206.011-12.799 10.286-20.312 19.383-20.307 5.543.006 8.83 1.859 11.495 4.664l.016-16.013 9.099.005zM295.22 64.92l-.04 37.983-8.34-.01v-3.83h-.135c-1.511 2.055-3.976 5.06-9.792 5.054-6.915-.005-10.812-3.431-12.727-6.034-2.8-4.037-2.795-10.201-2.788-13.348l.017-19.848 9.103.01-.023 19.367c0 3.08-.01 11.495 7.93 11.506 5.749.005 7.67-5.398 7.676-11.422l.016-19.433zm40.851 25.63c-3.085 8.484-10.14 13.611-19.036 13.6-9.72-.005-20.184-7.822-20.173-20.412.012-11.63 9.67-20.112 20.14-20.1 4.792.005 15.19 2.205 19.081 13.912l-10.264-.011c-1.097-1.915-3.213-5.548-8.822-5.553-5.544-.006-11.026 4.097-11.031 11.897-.005 6.5 4.575 11.915 11.416 11.92 3.012 0 6.025-1.433 8.421-5.264zm3.845-17.515-4.45-.005.01-8.075 4.446.007.012-12.659 9.102.005-.01 12.659 5.476.007-.01 8.078-5.477-.012-.028 29.91-9.099-.006zm16.234-20.721 9.104.012-.012 8.348-9.098-.012Zm-.012 12.658 9.104.01-.039 37.985-9.099-.01zm41.157 19.132c.005-6.914-5.325-12.05-11.007-12.054-4.721-.006-11.16 4.026-11.165 11.965-.005 7.19 5.392 11.847 11.143 11.852 6.64.007 11.024-5.739 11.029-11.763m-31.276-.096c.012-11.498 9.396-20.317 20.28-20.306 10.739.012 20.105 8.572 20.1 20.206-.012 12.458-9.603 20.319-20.14 20.307-11.292-.01-20.25-9.328-20.24-20.207m41.188-18.988 8.42.006-.005 3.286c1.505-1.433 4.658-4.58 10.402-4.574 3.287.005 8.282 1.445 11.428 5.28 3.488 4.177 3.482 10.542 3.476 13.488l-.016 20.525-9.104-.006.018-18.75c.005-3.147.01-12.184-7.655-12.19-1.64 0-4.585.82-6.23 3.343-1.642 2.33-1.647 6.299-1.647 9.514l-.016 18.066-9.104-.005z" fill="#fff"/>
  <path d="M461.344 72.12c-5.476-.005-11.09 4.435-11.097 11.624-.005 7.73 5.807 12.183 11.35 12.188 5.475.006 10.883-4.641 10.894-12.238 0-5.404-4.372-11.568-11.147-11.574m20.268-7.032-.035 31c-.016 18.276-13.57 22.435-20.754 22.43-7.804-.011-15.805-4.12-19.08-12.609l10.403.006c3.554 4.25 7.933 4.25 9.372 4.254 5.128.006 11.153-3.549 11.64-11.829l-.135-.134c-1.236 1.708-4.73 6.085-12.463 6.08-9.237-.013-19.428-7.89-19.412-20.62.012-11.91 9.732-19.906 19.384-19.9 7.8.012 11.08 4.464 12.104 5.969h.141l.006-4.652zm1.778-12.657 9.105.012-.05 50.641-9.1-.01zm44.471 12.703-.04 37.982-8.348-.01.007-3.83h-.14c-1.505 2.05-3.976 5.06-9.787 5.055-6.914-.006-10.812-3.432-12.726-6.035-2.8-4.042-2.795-10.201-2.788-13.348l.017-19.848 9.097.01-.017 19.368c-.005 3.08-.01 11.494 7.93 11.505 5.743.005 7.67-5.403 7.675-11.421l.016-19.44zM559.003 80.9c-1.02-6.09-5.398-8.694-10.258-8.7-3.694-.006-9.037 1.635-10.749 8.678zm-20.744 7.307c.409 2.464 3.964 7.799 10.464 7.804 4.037.007 7.049-1.701 8.768-4.848l9.58.01c-2.2 6.843-9.39 13.198-18.354 13.192-11.566-.012-20.044-9.053-20.033-20.14.012-10.743 7.956-20.385 20-20.373 12.457.01 19.635 10.212 19.624 19.79 0 1.782-.275 3.356-.555 4.588z" fill="#2E6AB3"/>
  <path d="M133.99 129.21h-.345l-3.777 9.617.344.344h7.212l.345-.344zm9.618 18.89h-2.062l-.344-.344-2.061-5.15-.684-.346h-9.273l-.688.345-2.062 5.151-.345.344h-2.06l-.34-.344v-2.407l8.24-20.946.344-.344h3.09l.345.344 8.244 20.946v2.407zm30.865-20.952h-7.212l-.344.345v20.263l-.339.344h-2.75l-.344-.344v-20.263l-.346-.345h-7.212l-.338-.339v-2.406l.338-.344h18.547l.345.344v2.406Zm10.989 2.062h-.345l-3.777 9.617.344.344h7.212l.345-.344zm9.618 18.89h-2.062l-.344-.344-2.061-5.15-.684-.346h-9.273l-.688.345-2.062 5.151-.345.344h-2.06l-.34-.344v-2.407l8.24-20.946.344-.344h3.09l.345.344 8.244 20.946v2.407zm8.098 0h-2.75l-.34-.345v-23.352l.34-.344h2.75l.345.344v23.352Zm23.833-20.952H219.8l-.344.345v20.263l-.338.344h-2.75l-.345-.344v-20.263l-.34-.345h-7.217l-.339-.339v-2.406l.339-.344h18.546l.346.344v2.406Zm12.702 8.935c0-7.212 4.122-12.368 11.334-12.368 5.495 0 8.928 3.094 9.618 7.212l-.344.344h-2.746l-.345-.344c-.688-2.4-2.75-4.118-6.183-4.118-5.15 0-7.9 3.78-7.9 9.274s2.75 9.268 7.9 9.268c3.778 0 5.495-2.056 6.183-4.462l.345-.345h2.746l.344.345c-.69 4.122-3.778 7.556-9.618 7.556-7.212 0-11.334-5.15-11.334-12.362m33.1 9.267c3.089 0 4.806-2.055 4.806-5.834 0-3.777-1.717-5.839-4.806-5.839s-4.807 2.062-4.807 5.84 1.717 5.834 4.807 5.834m0-14.763c5.15 0 8.24 3.433 8.24 8.928 0 5.495-3.09 8.93-8.24 8.93-5.151 0-8.246-3.435-8.246-8.93s3.095-8.928 8.246-8.928M309.18 148.1h-2.751l-.34-.345v-10.3c0-2.062-.343-3.779-3.094-3.779-2.4 0-3.777 1.717-3.777 4.463v9.616l-.34.345h-2.75l-.345-.345v-10.3c0-2.062-.344-3.779-3.088-3.779-1.718 0-3.778 1.028-3.778 4.463v9.616l-.346.345h-2.744l-.345-.345V131.27l.345-.346h2.4l.344.346.346 1.372h.344c.682-1.027 2.06-2.055 4.46-2.055 2.752 0 3.78 1.372 4.469 2.4h.344c1.028-1.372 2.744-2.4 5.15-2.4 4.806 0 5.84 3.088 5.84 6.867v10.3Zm13.394-14.423c-2.75 0-4.467 1.718-4.467 5.84 0 4.116 1.716 5.834 4.467 5.834 2.745 0 4.461-2.056 4.461-5.834 0-3.778-1.716-5.84-4.461-5.84m.34 14.768c-3.09 0-4.463-2.06-4.463-2.06h-.344v8.239l-.345.344h-2.744l-.345-.344v-23.352l.345-.345h2.4l.344.345.345 1.372h.344s1.372-2.056 4.463-2.056c4.81 0 7.555 3.773 7.555 8.93 0 5.149-2.744 8.927-7.555 8.927m21.973-7.557-.339-.345s-1.033-.344-2.75-.344c-3.09 0-4.462 1.034-4.462 2.75 0 1.718 1.028 2.4 3.09 2.4 2.744 0 4.461-1.372 4.461-3.433zm3.095 7.212h-2.406l-.344-.344-.345-1.373h-.339s-1.378 2.061-4.812 2.061c-3.777 0-5.838-2.061-5.838-5.495 0-3.778 3.094-5.494 7.556-5.494 1.716 0 3.094.344 3.094.344l.34-.344v-.69c0-2.405-1.029-3.089-3.434-3.089-2.402 0-3.435.684-3.435 2.061l-.344.344h-2.744l-.345-.344c0-2.405 1.717-5.15 6.868-5.15 5.156 0 6.872 2.4 6.872 7.55v9.62zm19.881 0h-2.75l-.34-.345v-9.956c0-1.716-.343-4.123-3.433-4.123-3.094 0-4.466 1.717-4.466 5.84v8.239l-.346.345h-2.744l-.345-.345V131.27l.345-.346h2.4l.344.346.346 1.372h.344s1.372-2.055 4.461-2.055c4.812 0 6.53 3.088 6.53 7.21v9.957Zm13.976-.688c-2.061 5.156-3.433 6.184-7.556 6.184h-.684l-.344-.344v-2.401l.344-.344h.684c1.716 0 2.75-.344 3.433-2.062v-.344l-5.838-14.424v-2.405l.344-.344h2.061l.344.344 4.807 12.707h.344l4.812-12.707.338-.344h2.062l.344.344v2.405z" fill="#fff"/>
</svg>
